# Blender 4.2.14 LTS
# www.blender.org
o Circle_double_002
v -0.075021 0.161490 -0.000000
v -0.092387 0.159779 -0.000000
v -0.109085 0.154714 -0.000000
v -0.124474 0.146489 -0.000000
v -0.137962 0.135419 -0.000000
v -0.149032 0.121930 -0.000000
v -0.157257 0.106542 -0.000000
v -0.162323 0.089844 -0.000000
v -0.164033 0.072478 -0.000000
v -0.162323 0.055113 -0.000000
v -0.157257 0.038415 -0.000000
v -0.149032 0.023026 -0.000000
v -0.137962 0.009538 -0.000000
v -0.124474 -0.001532 -0.000000
v -0.109085 -0.009757 -0.000000
v -0.092387 -0.014823 -0.000000
v -0.075021 -0.016533 -0.000000
v -0.057656 -0.014823 -0.000000
v -0.040958 -0.009757 -0.000000
v -0.025569 -0.001532 -0.000000
v -0.012081 0.009538 -0.000000
v -0.001011 0.023026 -0.000000
v 0.007214 0.038415 -0.000000
v 0.012280 0.055113 -0.000000
v 0.013990 0.072478 -0.000000
v 0.012280 0.089844 -0.000000
v 0.007214 0.106542 -0.000000
v -0.001011 0.121930 -0.000000
v -0.012081 0.135419 -0.000000
v -0.025569 0.146489 -0.000000
v -0.040958 0.154714 -0.000000
v -0.057656 0.159779 -0.000000
v -0.075775 0.155467 -0.000000
v -0.093699 0.147801 -0.000000
v -0.110742 0.137076 -0.000000
v -0.126247 0.123704 -0.000000
v -0.139619 0.108199 -0.000000
v -0.150344 0.091156 -0.000000
v -0.158010 0.073231 -0.000000
v -0.058534 0.147366 -0.000000
v -0.076551 0.136948 -0.000000
v -0.094317 0.123861 -0.000000
v -0.111151 0.108608 -0.000000
v -0.126404 0.091774 -0.000000
v -0.139491 0.074008 -0.000000
v -0.149909 0.055990 -0.000000
v -0.041513 0.135974 -0.000000
v -0.058623 0.122897 -0.000000
v -0.076242 0.107762 -0.000000
v -0.093693 0.091150 -0.000000
v -0.110305 0.073699 -0.000000
v -0.125440 0.056080 -0.000000
v -0.138517 0.038970 -0.000000
v -0.025569 0.121930 -0.000000
v -0.040958 0.106542 -0.000000
v -0.057656 0.089844 -0.000000
v -0.075021 0.072478 -0.000000
v -0.092387 0.055113 -0.000000
v -0.109085 0.038415 -0.000000
v -0.124474 0.023026 -0.000000
v -0.011526 0.105987 -0.000000
v -0.024603 0.088877 -0.000000
v -0.039738 0.071258 -0.000000
v -0.056350 0.053807 -0.000000
v -0.073801 0.037195 -0.000000
v -0.091420 0.022060 -0.000000
v -0.108530 0.008983 -0.000000
v -0.000134 0.088966 -0.000000
v -0.010552 0.070949 -0.000000
v -0.023639 0.053182 -0.000000
v -0.038892 0.036349 -0.000000
v -0.055725 0.021096 -0.000000
v -0.073492 0.008009 -0.000000
v -0.091509 -0.002409 -0.000000
v 0.007967 0.071725 -0.000000
v 0.000301 0.053800 -0.000000
v -0.010424 0.036758 -0.000000
v -0.023796 0.021253 -0.000000
v -0.039301 0.007881 -0.000000
v -0.056343 -0.002845 -0.000000
v -0.074268 -0.010511 -0.000000
v -0.075021 0.161490 -0.000000
v -0.092387 0.159779 -0.000000
v -0.109085 0.154714 -0.000000
v -0.124474 0.146489 -0.000000
v -0.137962 0.135419 -0.000000
v -0.149032 0.121930 -0.000000
v -0.157257 0.106542 -0.000000
v -0.162323 0.089844 -0.000000
v -0.164033 0.072478 -0.000000
v -0.162323 0.055113 -0.000000
v -0.157257 0.038415 -0.000000
v -0.149032 0.023026 -0.000000
v -0.137962 0.009538 -0.000000
v -0.124474 -0.001532 -0.000000
v -0.109085 -0.009757 -0.000000
v -0.092387 -0.014823 -0.000000
v -0.075021 -0.016533 -0.000000
v -0.057656 -0.014823 -0.000000
v -0.040958 -0.009757 -0.000000
v -0.025569 -0.001532 -0.000000
v -0.012081 0.009538 -0.000000
v -0.001011 0.023026 -0.000000
v 0.007214 0.038415 -0.000000
v 0.012280 0.055113 -0.000000
v 0.013990 0.072478 -0.000000
v 0.012280 0.089844 -0.000000
v 0.007214 0.106542 -0.000000
v -0.001011 0.121930 -0.000000
v -0.012081 0.135419 -0.000000
v -0.025569 0.146489 -0.000000
v -0.040958 0.154714 -0.000000
v -0.057656 0.159779 -0.000000
v -0.075775 0.155467 -0.000000
v -0.093699 0.147801 -0.000000
v -0.110742 0.137076 -0.000000
v -0.126247 0.123704 -0.000000
v -0.139619 0.108199 -0.000000
v -0.150344 0.091156 -0.000000
v -0.158010 0.073231 -0.000000
v -0.058534 0.147366 -0.000000
v -0.076551 0.136948 -0.000000
v -0.094317 0.123861 -0.000000
v -0.111151 0.108608 -0.000000
v -0.126404 0.091774 -0.000000
v -0.139491 0.074008 -0.000000
v -0.149909 0.055990 -0.000000
v -0.041513 0.135974 -0.000000
v -0.058623 0.122897 -0.000000
v -0.076242 0.107762 -0.000000
v -0.093693 0.091150 -0.000000
v -0.110305 0.073699 -0.000000
v -0.125440 0.056080 -0.000000
v -0.138517 0.038970 -0.000000
v -0.025569 0.121930 -0.000000
v -0.040958 0.106542 -0.000000
v -0.057656 0.089844 -0.000000
v -0.075021 0.072478 -0.000000
v -0.092387 0.055113 -0.000000
v -0.109085 0.038415 -0.000000
v -0.124474 0.023026 -0.000000
v -0.011526 0.105987 -0.000000
v -0.024603 0.088877 -0.000000
v -0.039738 0.071258 -0.000000
v -0.056350 0.053807 -0.000000
v -0.073801 0.037195 -0.000000
v -0.091420 0.022060 -0.000000
v -0.108530 0.008983 -0.000000
v -0.000134 0.088966 -0.000000
v -0.010552 0.070949 -0.000000
v -0.023639 0.053182 -0.000000
v -0.038892 0.036349 -0.000000
v -0.055725 0.021096 -0.000000
v -0.073492 0.008009 -0.000000
v -0.091509 -0.002409 -0.000000
v 0.007967 0.071725 -0.000000
v 0.000301 0.053800 -0.000000
v -0.010424 0.036758 -0.000000
v -0.023796 0.021253 -0.000000
v -0.039301 0.007881 -0.000000
v -0.056343 -0.002845 -0.000000
v -0.074268 -0.010511 -0.000000
v 0.012571 -0.044066 0.000000
v 0.023568 -0.041879 0.000000
v 0.032890 -0.035650 0.000000
v 0.039119 -0.026327 0.000000
v 0.041307 -0.015330 0.000000
v 0.039119 -0.004333 0.000000
v 0.032890 0.004989 0.000000
v 0.023568 0.011218 0.000000
v 0.012571 0.013406 0.000000
v 0.001574 0.011218 0.000000
v -0.007749 0.004989 0.000000
v -0.013978 -0.004333 0.000000
v -0.016165 -0.015330 0.000000
v -0.013978 -0.026327 0.000000
v -0.007749 -0.035650 0.000000
v 0.001574 -0.041879 0.000000
v 0.033384 -0.014836 0.000000
v 0.024235 -0.003666 0.000000
v 0.013064 0.005483 0.000000
v 0.023568 -0.026327 0.000000
v 0.012571 -0.015330 0.000000
v 0.001574 -0.004333 0.000000
v 0.012077 -0.036143 0.000000
v 0.000907 -0.026994 0.000000
v -0.008242 -0.015824 0.000000
vn -0.0000 -0.0000 1.0000
vt 0.000000 0.000000
s 0
f 2/1/1 33/1/1 32/1/1 1/1/1
f 33/1/1 40/1/1 31/1/1 32/1/1
f 40/1/1 47/1/1 30/1/1 31/1/1
f 47/1/1 54/1/1 29/1/1 30/1/1
f 54/1/1 61/1/1 28/1/1 29/1/1
f 61/1/1 68/1/1 27/1/1 28/1/1
f 68/1/1 75/1/1 26/1/1 27/1/1
f 75/1/1 24/1/1 25/1/1 26/1/1
f 3/1/1 34/1/1 33/1/1 2/1/1
f 34/1/1 41/1/1 40/1/1 33/1/1
f 41/1/1 48/1/1 47/1/1 40/1/1
f 48/1/1 55/1/1 54/1/1 47/1/1
f 55/1/1 62/1/1 61/1/1 54/1/1
f 62/1/1 69/1/1 68/1/1 61/1/1
f 69/1/1 76/1/1 75/1/1 68/1/1
f 76/1/1 23/1/1 24/1/1 75/1/1
f 4/1/1 35/1/1 34/1/1 3/1/1
f 35/1/1 42/1/1 41/1/1 34/1/1
f 42/1/1 49/1/1 48/1/1 41/1/1
f 49/1/1 56/1/1 55/1/1 48/1/1
f 56/1/1 63/1/1 62/1/1 55/1/1
f 63/1/1 70/1/1 69/1/1 62/1/1
f 70/1/1 77/1/1 76/1/1 69/1/1
f 77/1/1 22/1/1 23/1/1 76/1/1
f 5/1/1 36/1/1 35/1/1 4/1/1
f 36/1/1 43/1/1 42/1/1 35/1/1
f 43/1/1 50/1/1 49/1/1 42/1/1
f 50/1/1 57/1/1 56/1/1 49/1/1
f 57/1/1 64/1/1 63/1/1 56/1/1
f 64/1/1 71/1/1 70/1/1 63/1/1
f 71/1/1 78/1/1 77/1/1 70/1/1
f 78/1/1 21/1/1 22/1/1 77/1/1
f 6/1/1 37/1/1 36/1/1 5/1/1
f 37/1/1 44/1/1 43/1/1 36/1/1
f 44/1/1 51/1/1 50/1/1 43/1/1
f 51/1/1 58/1/1 57/1/1 50/1/1
f 58/1/1 65/1/1 64/1/1 57/1/1
f 65/1/1 72/1/1 71/1/1 64/1/1
f 72/1/1 79/1/1 78/1/1 71/1/1
f 79/1/1 20/1/1 21/1/1 78/1/1
f 7/1/1 38/1/1 37/1/1 6/1/1
f 38/1/1 45/1/1 44/1/1 37/1/1
f 45/1/1 52/1/1 51/1/1 44/1/1
f 52/1/1 59/1/1 58/1/1 51/1/1
f 59/1/1 66/1/1 65/1/1 58/1/1
f 66/1/1 73/1/1 72/1/1 65/1/1
f 73/1/1 80/1/1 79/1/1 72/1/1
f 80/1/1 19/1/1 20/1/1 79/1/1
f 8/1/1 39/1/1 38/1/1 7/1/1
f 39/1/1 46/1/1 45/1/1 38/1/1
f 46/1/1 53/1/1 52/1/1 45/1/1
f 53/1/1 60/1/1 59/1/1 52/1/1
f 60/1/1 67/1/1 66/1/1 59/1/1
f 67/1/1 74/1/1 73/1/1 66/1/1
f 74/1/1 81/1/1 80/1/1 73/1/1
f 81/1/1 18/1/1 19/1/1 80/1/1
f 9/1/1 10/1/1 39/1/1 8/1/1
f 10/1/1 11/1/1 46/1/1 39/1/1
f 11/1/1 12/1/1 53/1/1 46/1/1
f 12/1/1 13/1/1 60/1/1 53/1/1
f 13/1/1 14/1/1 67/1/1 60/1/1
f 14/1/1 15/1/1 74/1/1 67/1/1
f 15/1/1 16/1/1 81/1/1 74/1/1
f 16/1/1 17/1/1 18/1/1 81/1/1
f 83/1/1 114/1/1 113/1/1 82/1/1
f 114/1/1 121/1/1 112/1/1 113/1/1
f 121/1/1 128/1/1 111/1/1 112/1/1
f 128/1/1 135/1/1 110/1/1 111/1/1
f 135/1/1 142/1/1 109/1/1 110/1/1
f 142/1/1 149/1/1 108/1/1 109/1/1
f 149/1/1 156/1/1 107/1/1 108/1/1
f 156/1/1 105/1/1 106/1/1 107/1/1
f 84/1/1 115/1/1 114/1/1 83/1/1
f 115/1/1 122/1/1 121/1/1 114/1/1
f 122/1/1 129/1/1 128/1/1 121/1/1
f 129/1/1 136/1/1 135/1/1 128/1/1
f 136/1/1 143/1/1 142/1/1 135/1/1
f 143/1/1 150/1/1 149/1/1 142/1/1
f 150/1/1 157/1/1 156/1/1 149/1/1
f 157/1/1 104/1/1 105/1/1 156/1/1
f 85/1/1 116/1/1 115/1/1 84/1/1
f 116/1/1 123/1/1 122/1/1 115/1/1
f 123/1/1 130/1/1 129/1/1 122/1/1
f 130/1/1 137/1/1 136/1/1 129/1/1
f 137/1/1 144/1/1 143/1/1 136/1/1
f 144/1/1 151/1/1 150/1/1 143/1/1
f 151/1/1 158/1/1 157/1/1 150/1/1
f 158/1/1 103/1/1 104/1/1 157/1/1
f 86/1/1 117/1/1 116/1/1 85/1/1
f 117/1/1 124/1/1 123/1/1 116/1/1
f 124/1/1 131/1/1 130/1/1 123/1/1
f 131/1/1 138/1/1 137/1/1 130/1/1
f 138/1/1 145/1/1 144/1/1 137/1/1
f 145/1/1 152/1/1 151/1/1 144/1/1
f 152/1/1 159/1/1 158/1/1 151/1/1
f 159/1/1 102/1/1 103/1/1 158/1/1
f 87/1/1 118/1/1 117/1/1 86/1/1
f 118/1/1 125/1/1 124/1/1 117/1/1
f 125/1/1 132/1/1 131/1/1 124/1/1
f 132/1/1 139/1/1 138/1/1 131/1/1
f 139/1/1 146/1/1 145/1/1 138/1/1
f 146/1/1 153/1/1 152/1/1 145/1/1
f 153/1/1 160/1/1 159/1/1 152/1/1
f 160/1/1 101/1/1 102/1/1 159/1/1
f 88/1/1 119/1/1 118/1/1 87/1/1
f 119/1/1 126/1/1 125/1/1 118/1/1
f 126/1/1 133/1/1 132/1/1 125/1/1
f 133/1/1 140/1/1 139/1/1 132/1/1
f 140/1/1 147/1/1 146/1/1 139/1/1
f 147/1/1 154/1/1 153/1/1 146/1/1
f 154/1/1 161/1/1 160/1/1 153/1/1
f 161/1/1 100/1/1 101/1/1 160/1/1
f 89/1/1 120/1/1 119/1/1 88/1/1
f 120/1/1 127/1/1 126/1/1 119/1/1
f 127/1/1 134/1/1 133/1/1 126/1/1
f 134/1/1 141/1/1 140/1/1 133/1/1
f 141/1/1 148/1/1 147/1/1 140/1/1
f 148/1/1 155/1/1 154/1/1 147/1/1
f 155/1/1 162/1/1 161/1/1 154/1/1
f 162/1/1 99/1/1 100/1/1 161/1/1
f 90/1/1 91/1/1 120/1/1 89/1/1
f 91/1/1 92/1/1 127/1/1 120/1/1
f 92/1/1 93/1/1 134/1/1 127/1/1
f 93/1/1 94/1/1 141/1/1 134/1/1
f 94/1/1 95/1/1 148/1/1 141/1/1
f 95/1/1 96/1/1 155/1/1 148/1/1
f 96/1/1 97/1/1 162/1/1 155/1/1
f 97/1/1 98/1/1 99/1/1 162/1/1
f 168/1/1 179/1/1 166/1/1 167/1/1
f 179/1/1 182/1/1 165/1/1 166/1/1
f 182/1/1 185/1/1 164/1/1 165/1/1
f 185/1/1 178/1/1 163/1/1 164/1/1
f 169/1/1 180/1/1 179/1/1 168/1/1
f 180/1/1 183/1/1 182/1/1 179/1/1
f 183/1/1 186/1/1 185/1/1 182/1/1
f 186/1/1 177/1/1 178/1/1 185/1/1
f 170/1/1 181/1/1 180/1/1 169/1/1
f 181/1/1 184/1/1 183/1/1 180/1/1
f 184/1/1 187/1/1 186/1/1 183/1/1
f 187/1/1 176/1/1 177/1/1 186/1/1
f 171/1/1 172/1/1 181/1/1 170/1/1
f 172/1/1 173/1/1 184/1/1 181/1/1
f 173/1/1 174/1/1 187/1/1 184/1/1
f 174/1/1 175/1/1 176/1/1 187/1/1
