# Blender 4.2.14 LTS
# www.blender.org
o Circle_Double_Sep_001
v 0.563828 0.177528 0.000000
v 0.529194 0.174117 0.000000
v 0.495892 0.164014 0.000000
v 0.465199 0.147609 0.000000
v 0.438297 0.125531 0.000000
v 0.416219 0.098629 0.000000
v 0.399814 0.067937 0.000000
v 0.389712 0.034634 0.000000
v 0.386301 0.000000 0.000000
v 0.389712 -0.034634 -0.000000
v 0.399814 -0.067937 -0.000000
v 0.416219 -0.098629 -0.000000
v 0.438297 -0.125531 -0.000000
v 0.465199 -0.147609 -0.000000
v 0.495892 -0.164014 -0.000000
v 0.529194 -0.174117 -0.000000
v 0.563828 -0.177528 -0.000000
v 0.598462 -0.174117 -0.000000
v 0.631765 -0.164014 -0.000000
v 0.662458 -0.147609 -0.000000
v 0.689360 -0.125531 -0.000000
v 0.711437 -0.098629 -0.000000
v 0.727843 -0.067937 -0.000000
v 0.737945 -0.034634 -0.000000
v 0.741356 0.000000 0.000000
v 0.737945 0.034634 0.000000
v 0.727843 0.067937 0.000000
v 0.711437 0.098629 0.000000
v 0.689360 0.125531 0.000000
v 0.662458 0.147609 0.000000
v 0.631765 0.164014 0.000000
v 0.598462 0.174117 0.000000
v 0.562326 0.165516 0.000000
v 0.526576 0.150227 0.000000
v 0.492586 0.128837 0.000000
v 0.461662 0.102167 0.000000
v 0.434992 0.071242 0.000000
v 0.413601 0.037252 0.000000
v 0.398312 0.001502 0.000000
v 0.596713 0.149359 0.000000
v 0.560778 0.128581 0.000000
v 0.525344 0.102480 0.000000
v 0.491770 0.072058 0.000000
v 0.461349 0.038485 0.000000
v 0.435247 0.003050 0.000000
v 0.414470 -0.032884 -0.000000
v 0.630659 0.126637 0.000000
v 0.596534 0.100557 0.000000
v 0.561394 0.070371 0.000000
v 0.526589 0.037239 0.000000
v 0.493457 0.002434 0.000000
v 0.463271 -0.032706 -0.000000
v 0.437191 -0.066831 -0.000000
v 0.662458 0.098629 0.000000
v 0.631765 0.067937 0.000000
v 0.598462 0.034634 0.000000
v 0.563828 0.000000 0.000000
v 0.529194 -0.034634 -0.000000
v 0.495892 -0.067937 -0.000000
v 0.465199 -0.098629 -0.000000
v 0.690466 0.066831 0.000000
v 0.664386 0.032706 0.000000
v 0.634200 -0.002434 -0.000000
v 0.601068 -0.037239 -0.000000
v 0.566263 -0.070371 -0.000000
v 0.531123 -0.100557 -0.000000
v 0.496998 -0.126637 -0.000000
v 0.713187 0.032884 0.000000
v 0.692410 -0.003050 -0.000000
v 0.666308 -0.038485 -0.000000
v 0.635886 -0.072058 -0.000000
v 0.602313 -0.102480 -0.000000
v 0.566878 -0.128581 -0.000000
v 0.530944 -0.149359 -0.000000
v 0.729345 -0.001502 -0.000000
v 0.714056 -0.037252 -0.000000
v 0.692665 -0.071242 -0.000000
v 0.665995 -0.102167 -0.000000
v 0.635071 -0.128836 -0.000000
v 0.601081 -0.150227 -0.000000
v 0.565330 -0.165516 -0.000000
v -0.351206 0.545788 0.000000
v -0.457684 0.535300 0.000000
v -0.560070 0.504242 0.000000
v -0.654430 0.453806 0.000000
v -0.737136 0.385930 0.000000
v -0.805012 0.303223 0.000000
v -0.855448 0.208864 0.000000
v -0.886507 0.106478 0.000000
v -0.896994 0.000000 0.000000
v -0.886507 -0.106478 -0.000000
v -0.855448 -0.208864 -0.000000
v -0.805012 -0.303223 -0.000000
v -0.737136 -0.385930 -0.000000
v -0.654430 -0.453806 -0.000000
v -0.560070 -0.504242 -0.000000
v -0.457684 -0.535300 -0.000000
v -0.351206 -0.545788 -0.000000
v -0.244728 -0.535300 -0.000000
v -0.142342 -0.504242 -0.000000
v -0.047983 -0.453806 -0.000000
v 0.034724 -0.385930 -0.000000
v 0.102600 -0.303223 -0.000000
v 0.153036 -0.208864 -0.000000
v 0.184094 -0.106478 -0.000000
v 0.194581 0.000000 0.000000
v 0.184094 0.106478 0.000000
v 0.153036 0.208864 0.000000
v 0.102600 0.303223 0.000000
v 0.034724 0.385930 0.000000
v -0.047983 0.453806 0.000000
v -0.142342 0.504242 0.000000
v -0.244728 0.535300 0.000000
v -0.355824 0.508860 0.000000
v -0.465733 0.461855 0.000000
v -0.570232 0.396092 0.000000
v -0.665305 0.314099 0.000000
v -0.747298 0.219026 0.000000
v -0.813061 0.114527 0.000000
v -0.860066 0.004618 0.000000
v -0.250108 0.459185 0.000000
v -0.360583 0.395307 0.000000
v -0.469523 0.315062 0.000000
v -0.572740 0.221534 0.000000
v -0.666268 0.118316 0.000000
v -0.746513 0.009377 0.000000
v -0.810392 -0.101098 -0.000000
v -0.145743 0.389331 0.000000
v -0.250657 0.309151 0.000000
v -0.358691 0.216348 0.000000
v -0.465694 0.114488 0.000000
v -0.567555 0.007484 0.000000
v -0.660358 -0.100550 -0.000000
v -0.740537 -0.205463 -0.000000
v -0.047983 0.303223 0.000000
v -0.142342 0.208864 0.000000
v -0.244728 0.106478 0.000000
v -0.351206 0.000000 0.000000
v -0.457684 -0.106478 -0.000000
v -0.560070 -0.208864 -0.000000
v -0.654430 -0.303223 -0.000000
v 0.038125 0.205463 0.000000
v -0.042055 0.100550 0.000000
v -0.134858 -0.007484 -0.000000
v -0.236719 -0.114488 -0.000000
v -0.343722 -0.216348 -0.000000
v -0.451756 -0.309151 -0.000000
v -0.556669 -0.389331 -0.000000
v 0.107979 0.101098 0.000000
v 0.044101 -0.009377 -0.000000
v -0.036144 -0.118316 -0.000000
v -0.129673 -0.221534 -0.000000
v -0.232890 -0.315062 -0.000000
v -0.341829 -0.395307 -0.000000
v -0.452305 -0.459185 -0.000000
v 0.157653 -0.004618 -0.000000
v 0.110648 -0.114527 -0.000000
v 0.044886 -0.219026 -0.000000
v -0.037108 -0.314099 -0.000000
v -0.132180 -0.396092 -0.000000
v -0.236679 -0.461855 -0.000000
v -0.346589 -0.508860 -0.000000
vn -0.0000 -0.0000 1.0000
vt 0.000000 0.000000
s 0
f 2/1/1 33/1/1 32/1/1 1/1/1
f 33/1/1 40/1/1 31/1/1 32/1/1
f 40/1/1 47/1/1 30/1/1 31/1/1
f 47/1/1 54/1/1 29/1/1 30/1/1
f 54/1/1 61/1/1 28/1/1 29/1/1
f 61/1/1 68/1/1 27/1/1 28/1/1
f 68/1/1 75/1/1 26/1/1 27/1/1
f 75/1/1 24/1/1 25/1/1 26/1/1
f 3/1/1 34/1/1 33/1/1 2/1/1
f 34/1/1 41/1/1 40/1/1 33/1/1
f 41/1/1 48/1/1 47/1/1 40/1/1
f 48/1/1 55/1/1 54/1/1 47/1/1
f 55/1/1 62/1/1 61/1/1 54/1/1
f 62/1/1 69/1/1 68/1/1 61/1/1
f 69/1/1 76/1/1 75/1/1 68/1/1
f 76/1/1 23/1/1 24/1/1 75/1/1
f 4/1/1 35/1/1 34/1/1 3/1/1
f 35/1/1 42/1/1 41/1/1 34/1/1
f 42/1/1 49/1/1 48/1/1 41/1/1
f 49/1/1 56/1/1 55/1/1 48/1/1
f 56/1/1 63/1/1 62/1/1 55/1/1
f 63/1/1 70/1/1 69/1/1 62/1/1
f 70/1/1 77/1/1 76/1/1 69/1/1
f 77/1/1 22/1/1 23/1/1 76/1/1
f 5/1/1 36/1/1 35/1/1 4/1/1
f 36/1/1 43/1/1 42/1/1 35/1/1
f 43/1/1 50/1/1 49/1/1 42/1/1
f 50/1/1 57/1/1 56/1/1 49/1/1
f 57/1/1 64/1/1 63/1/1 56/1/1
f 64/1/1 71/1/1 70/1/1 63/1/1
f 71/1/1 78/1/1 77/1/1 70/1/1
f 78/1/1 21/1/1 22/1/1 77/1/1
f 6/1/1 37/1/1 36/1/1 5/1/1
f 37/1/1 44/1/1 43/1/1 36/1/1
f 44/1/1 51/1/1 50/1/1 43/1/1
f 51/1/1 58/1/1 57/1/1 50/1/1
f 58/1/1 65/1/1 64/1/1 57/1/1
f 65/1/1 72/1/1 71/1/1 64/1/1
f 72/1/1 79/1/1 78/1/1 71/1/1
f 79/1/1 20/1/1 21/1/1 78/1/1
f 7/1/1 38/1/1 37/1/1 6/1/1
f 38/1/1 45/1/1 44/1/1 37/1/1
f 45/1/1 52/1/1 51/1/1 44/1/1
f 52/1/1 59/1/1 58/1/1 51/1/1
f 59/1/1 66/1/1 65/1/1 58/1/1
f 66/1/1 73/1/1 72/1/1 65/1/1
f 73/1/1 80/1/1 79/1/1 72/1/1
f 80/1/1 19/1/1 20/1/1 79/1/1
f 8/1/1 39/1/1 38/1/1 7/1/1
f 39/1/1 46/1/1 45/1/1 38/1/1
f 46/1/1 53/1/1 52/1/1 45/1/1
f 53/1/1 60/1/1 59/1/1 52/1/1
f 60/1/1 67/1/1 66/1/1 59/1/1
f 67/1/1 74/1/1 73/1/1 66/1/1
f 74/1/1 81/1/1 80/1/1 73/1/1
f 81/1/1 18/1/1 19/1/1 80/1/1
f 9/1/1 10/1/1 39/1/1 8/1/1
f 10/1/1 11/1/1 46/1/1 39/1/1
f 11/1/1 12/1/1 53/1/1 46/1/1
f 12/1/1 13/1/1 60/1/1 53/1/1
f 13/1/1 14/1/1 67/1/1 60/1/1
f 14/1/1 15/1/1 74/1/1 67/1/1
f 15/1/1 16/1/1 81/1/1 74/1/1
f 16/1/1 17/1/1 18/1/1 81/1/1
f 83/1/1 114/1/1 113/1/1 82/1/1
f 114/1/1 121/1/1 112/1/1 113/1/1
f 121/1/1 128/1/1 111/1/1 112/1/1
f 128/1/1 135/1/1 110/1/1 111/1/1
f 135/1/1 142/1/1 109/1/1 110/1/1
f 142/1/1 149/1/1 108/1/1 109/1/1
f 149/1/1 156/1/1 107/1/1 108/1/1
f 156/1/1 105/1/1 106/1/1 107/1/1
f 84/1/1 115/1/1 114/1/1 83/1/1
f 115/1/1 122/1/1 121/1/1 114/1/1
f 122/1/1 129/1/1 128/1/1 121/1/1
f 129/1/1 136/1/1 135/1/1 128/1/1
f 136/1/1 143/1/1 142/1/1 135/1/1
f 143/1/1 150/1/1 149/1/1 142/1/1
f 150/1/1 157/1/1 156/1/1 149/1/1
f 157/1/1 104/1/1 105/1/1 156/1/1
f 85/1/1 116/1/1 115/1/1 84/1/1
f 116/1/1 123/1/1 122/1/1 115/1/1
f 123/1/1 130/1/1 129/1/1 122/1/1
f 130/1/1 137/1/1 136/1/1 129/1/1
f 137/1/1 144/1/1 143/1/1 136/1/1
f 144/1/1 151/1/1 150/1/1 143/1/1
f 151/1/1 158/1/1 157/1/1 150/1/1
f 158/1/1 103/1/1 104/1/1 157/1/1
f 86/1/1 117/1/1 116/1/1 85/1/1
f 117/1/1 124/1/1 123/1/1 116/1/1
f 124/1/1 131/1/1 130/1/1 123/1/1
f 131/1/1 138/1/1 137/1/1 130/1/1
f 138/1/1 145/1/1 144/1/1 137/1/1
f 145/1/1 152/1/1 151/1/1 144/1/1
f 152/1/1 159/1/1 158/1/1 151/1/1
f 159/1/1 102/1/1 103/1/1 158/1/1
f 87/1/1 118/1/1 117/1/1 86/1/1
f 118/1/1 125/1/1 124/1/1 117/1/1
f 125/1/1 132/1/1 131/1/1 124/1/1
f 132/1/1 139/1/1 138/1/1 131/1/1
f 139/1/1 146/1/1 145/1/1 138/1/1
f 146/1/1 153/1/1 152/1/1 145/1/1
f 153/1/1 160/1/1 159/1/1 152/1/1
f 160/1/1 101/1/1 102/1/1 159/1/1
f 88/1/1 119/1/1 118/1/1 87/1/1
f 119/1/1 126/1/1 125/1/1 118/1/1
f 126/1/1 133/1/1 132/1/1 125/1/1
f 133/1/1 140/1/1 139/1/1 132/1/1
f 140/1/1 147/1/1 146/1/1 139/1/1
f 147/1/1 154/1/1 153/1/1 146/1/1
f 154/1/1 161/1/1 160/1/1 153/1/1
f 161/1/1 100/1/1 101/1/1 160/1/1
f 89/1/1 120/1/1 119/1/1 88/1/1
f 120/1/1 127/1/1 126/1/1 119/1/1
f 127/1/1 134/1/1 133/1/1 126/1/1
f 134/1/1 141/1/1 140/1/1 133/1/1
f 141/1/1 148/1/1 147/1/1 140/1/1
f 148/1/1 155/1/1 154/1/1 147/1/1
f 155/1/1 162/1/1 161/1/1 154/1/1
f 162/1/1 99/1/1 100/1/1 161/1/1
f 90/1/1 91/1/1 120/1/1 89/1/1
f 91/1/1 92/1/1 127/1/1 120/1/1
f 92/1/1 93/1/1 134/1/1 127/1/1
f 93/1/1 94/1/1 141/1/1 134/1/1
f 94/1/1 95/1/1 148/1/1 141/1/1
f 95/1/1 96/1/1 155/1/1 148/1/1
f 96/1/1 97/1/1 162/1/1 155/1/1
f 97/1/1 98/1/1 99/1/1 162/1/1
